{
  "source": "C:\\Users\\Peter\\Desktop\\stuff\\MIUN\\quantitative_research\\video_compression\\videos\\UVG\\HoneyBee_1920x1080_120fps_420_8bit_YUV.y4m",
  "output": "C:\\Users\\Peter\\Desktop\\stuff\\MIUN\\quantitative_research\\video_compression\\compressed_videos\\UVG\\h264\\2\\HoneyBee_1920x1080_120fps_420_8bit_YUV_h264.mp4",
  "codec": "h264",
  "ok": "[yuv4mpegpipe @ 0000014ae0775e00] Stream #0: not enough frames to estimate rate; consider increasing probesize\nInput #0, yuv4mpegpipe, from 'C:\\Users\\Peter\\Desktop\\stuff\\MIUN\\quantitative_research\\video_compression\\videos\\UVG\\HoneyBee_1920x1080_120fps_420_8bit_YUV.y4m':\n  Duration: 00:00:05.00, start: 0.000000, bitrate: 2985989 kb/s\n  Stream #0:0: Video: rawvideo (I420 / 0x30323449), yuv420p(progressive), 1920x1080, 120 fps, 120 tbr, 120 tbn\n[out#0/mp4 @ 0000014ae077a600] Codec AVOption b:a (set bitrate (in bits/s)) has not been used for any stream. The most likely reason is either wrong type (e.g. a video option with no video streams) or that it is a private option of some decoder which was not actually used for any stream.\nStream mapping:\n  Stream #0:0 -> #0:0 (rawvideo (native) -> h264 (libx264))\nPress [q] to stop, [?] for help\n[libx264 @ 0000014ae077ca80] using cpu capabilities: MMX2 SSE2Fast SSSE3 SSE4.2 AVX FMA3 BMI2 AVX2\n[libx264 @ 0000014ae077ca80] profile High, level 5.1, 4:2:0, 8-bit\n[libx264 @ 0000014ae077ca80] 264 - core 165 r3222 b35605a - H.264/MPEG-4 AVC codec - Copyleft 2003-2025 - http://www.videolan.org/x264.html - options: cabac=1 ref=5 deblock=1:0:0 analyse=0x3:0x113 me=hex subme=8 psy=1 psy_rd=1.00:0.00 mixed_ref=1 me_range=16 chroma_me=1 trellis=2 8x8dct=1 cqm=0 deadzone=21,11 fast_pskip=1 chroma_qp_offset=-2 threads=18 lookahead_threads=3 sliced_threads=0 nr=0 decimate=1 interlaced=0 bluray_compat=0 constrained_intra=0 bframes=3 b_pyramid=2 b_adapt=1 b_bias=0 direct=3 weightb=1 open_gop=0 weightp=2 keyint=250 keyint_min=25 scenecut=40 intra_refresh=0 rc_lookahead=50 rc=cbr mbtree=1 bitrate=2000 ratetol=1.0 qcomp=0.60 qpmin=0 qpmax=69 qpstep=4 vbv_maxrate=2000 vbv_bufsize=2000 nal_hrd=none filler=0 ip_ratio=1.40 aq=1:1.00\nOutput #0, mp4, to 'C:\\Users\\Peter\\Desktop\\stuff\\MIUN\\quantitative_research\\video_compression\\compressed_videos\\UVG\\h264\\2\\HoneyBee_1920x1080_120fps_420_8bit_YUV_h264.mp4':\n  Metadata:\n    encoder         : Lavf62.3.100\n  Stream #0:0: Video: h264 (avc1 / 0x31637661), yuv420p(tv, progressive), 1920x1080, q=2-31, 2000 kb/s, 120 fps, 15360 tbn\n    Metadata:\n      encoder         : Lavc62.11.100 libx264\n    Side data:\n      cpb: bitrate max/min/avg: 2000000/0/2000000 buffer size: 2000000 vbv_delay: N/A\nframe=    0 fps=0.0 q=0.0 size=       0KiB time=N/A bitrate=N/A speed=N/A elapsed=0:00:00.51    \nframe=    0 fps=0.0 q=0.0 size=       0KiB time=N/A bitrate=N/A speed=N/A elapsed=0:00:01.06    \nframe=    0 fps=0.0 q=0.0 size=       0KiB time=N/A bitrate=N/A speed=N/A elapsed=0:00:01.59    \nframe=    0 fps=0.0 q=0.0 size=       0KiB time=N/A bitrate=N/A speed=N/A elapsed=0:00:02.11    \nframe=    0 fps=0.0 q=0.0 size=       0KiB time=N/A bitrate=N/A speed=N/A elapsed=0:00:02.62    \nframe=   12 fps=3.8 q=46.0 size=       0KiB time=00:00:00.08 bitrate=   4.6kbits/s speed=0.0264x elapsed=0:00:03.15    \nframe=   24 fps=6.5 q=44.0 size=       0KiB time=00:00:00.18 bitrate=   2.1kbits/s speed=0.0499x elapsed=0:00:03.67    \nframe=   40 fps=9.5 q=43.0 size=       0KiB time=00:00:00.30 bitrate=   1.2kbits/s speed=0.0733x elapsed=0:00:04.20    \nframe=   52 fps= 11 q=43.0 size=       0KiB time=00:00:00.41 bitrate=   0.9kbits/s speed=0.0877x elapsed=0:00:04.75    \nframe=   64 fps= 12 q=42.0 size=       0KiB time=00:00:00.51 bitrate=   0.7kbits/s speed=0.0975x elapsed=0:00:05.30    \nframe=   80 fps= 14 q=42.0 size=       0KiB time=00:00:00.63 bitrate=   0.6kbits/s speed=0.109x elapsed=0:00:05.83    \nframe=   92 fps= 14 q=41.0 size=       0KiB time=00:00:00.75 bitrate=   0.5kbits/s speed=0.118x elapsed=0:00:06.35    \nframe=  104 fps= 15 q=41.0 size=       0KiB time=00:00:00.85 bitrate=   0.5kbits/s speed=0.124x elapsed=0:00:06.87    \nframe=  120 fps= 16 q=40.0 size=       0KiB time=00:00:00.98 bitrate=   0.4kbits/s speed=0.133x elapsed=0:00:07.40    \nframe=  132 fps= 17 q=40.0 size=       0KiB time=00:00:01.08 bitrate=   0.4kbits/s speed=0.136x elapsed=0:00:07.95    \nframe=  147 fps= 17 q=40.0 size=       0KiB time=00:00:01.18 bitrate=   0.3kbits/s speed=0.14x elapsed=0:00:08.47    \nframe=  160 fps= 18 q=40.0 size=       0KiB time=00:00:01.31 bitrate=   0.3kbits/s speed=0.146x elapsed=0:00:09.00    \nframe=  172 fps= 18 q=40.0 size=       0KiB time=00:00:01.41 bitrate=   0.3kbits/s speed=0.149x elapsed=0:00:09.53    \nframe=  184 fps= 18 q=40.0 size=       0KiB time=00:00:01.51 bitrate=   0.3kbits/s speed=0.151x elapsed=0:00:10.04    \nframe=  200 fps= 19 q=42.0 size=       0KiB time=00:00:01.65 bitrate=   0.2kbits/s speed=0.156x elapsed=0:00:10.56    \nframe=  212 fps= 19 q=42.0 size=       0KiB time=00:00:01.75 bitrate=   0.2kbits/s speed=0.158x elapsed=0:00:11.09    \nframe=  228 fps= 20 q=42.0 size=       0KiB time=00:00:01.86 bitrate=   0.2kbits/s speed=0.16x elapsed=0:00:11.63    \nframe=  233 fps= 19 q=42.0 size=       0KiB time=00:00:01.92 bitrate=   0.2kbits/s speed=0.158x elapsed=0:00:12.15    \nframe=  238 fps= 19 q=43.0 size=       0KiB time=00:00:01.96 bitrate=   0.2kbits/s speed=0.155x elapsed=0:00:12.67    \nframe=  250 fps= 19 q=43.0 size=       0KiB time=00:00:02.06 bitrate=   0.2kbits/s speed=0.157x elapsed=0:00:13.20    \nframe=  262 fps= 19 q=41.0 size=     256KiB time=00:00:02.16 bitrate= 968.1kbits/s speed=0.158x elapsed=0:00:13.74    \nframe=  278 fps= 19 q=40.0 size=     256KiB time=00:00:02.30 bitrate= 912.0kbits/s speed=0.161x elapsed=0:00:14.27    \nframe=  294 fps= 20 q=40.0 size=     256KiB time=00:00:02.41 bitrate= 867.9kbits/s speed=0.163x elapsed=0:00:14.79    \nframe=  306 fps= 20 q=40.0 size=     256KiB time=00:00:02.53 bitrate= 828.0kbits/s speed=0.165x elapsed=0:00:15.35    \nframe=  321 fps= 20 q=40.0 size=     256KiB time=00:00:02.64 bitrate= 794.0kbits/s speed=0.166x elapsed=0:00:15.88    \nframe=  334 fps= 20 q=40.0 size=     256KiB time=00:00:02.76 bitrate= 758.1kbits/s speed=0.169x elapsed=0:00:16.41    \nframe=  350 fps= 21 q=40.0 size=     256KiB time=00:00:02.88 bitrate= 727.5kbits/s speed=0.17x elapsed=0:00:16.95    \nframe=  362 fps= 21 q=40.0 size=     256KiB time=00:00:03.00 bitrate= 699.2kbits/s speed=0.172x elapsed=0:00:17.48    \nframe=  374 fps= 21 q=40.0 size=     256KiB time=00:00:03.10 bitrate= 676.6kbits/s speed=0.172x elapsed=0:00:18.03    \nframe=  389 fps= 21 q=40.0 size=     256KiB time=00:00:03.20 bitrate= 653.8kbits/s speed=0.173x elapsed=0:00:18.55    \nframe=  406 fps= 21 q=40.0 size=     256KiB time=00:00:03.35 bitrate= 626.1kbits/s speed=0.175x elapsed=0:00:19.09    \nframe=  422 fps= 22 q=40.0 size=     256KiB time=00:00:03.50 bitrate= 599.3kbits/s speed=0.178x elapsed=0:00:19.62    \nframe=  434 fps= 22 q=40.0 size=     256KiB time=00:00:03.60 bitrate= 582.6kbits/s speed=0.179x elapsed=0:00:20.15    \nframe=  450 fps= 22 q=42.0 size=     256KiB time=00:00:03.73 bitrate= 561.8kbits/s speed=0.181x elapsed=0:00:20.67    \nframe=  470 fps= 22 q=42.0 size=     256KiB time=00:00:03.88 bitrate= 540.1kbits/s speed=0.183x elapsed=0:00:21.20    \nframe=  483 fps= 22 q=42.0 size=     256KiB time=00:00:04.00 bitrate= 523.3kbits/s speed=0.184x elapsed=0:00:21.74    \nframe=  483 fps= 22 q=42.0 size=     256KiB time=00:00:04.00 bitrate= 523.3kbits/s speed=0.18x elapsed=0:00:22.26    \nframe=  500 fps= 22 q=42.0 size=     256KiB time=00:00:04.15 bitrate= 505.4kbits/s speed=0.182x elapsed=0:00:22.77    \nframe=  516 fps= 22 q=41.0 size=     256KiB time=00:00:04.28 bitrate= 489.7kbits/s speed=0.184x elapsed=0:00:23.30    \nframe=  532 fps= 22 q=40.0 size=     256KiB time=00:00:04.41 bitrate= 474.9kbits/s speed=0.185x elapsed=0:00:23.82    \nframe=  562 fps= 23 q=37.0 size=     256KiB time=00:00:04.66 bitrate= 449.5kbits/s speed=0.192x elapsed=0:00:24.34    \nframe=  591 fps= 24 q=-1.0 size=     256KiB time=00:00:04.90 bitrate= 427.3kbits/s speed=0.197x elapsed=0:00:24.87    \n[mp4 @ 0000014ae077b700] Starting second pass: moving the moov atom to the beginning of the file\n[out#0/mp4 @ 0000014ae077a600] video:519KiB audio:0KiB subtitle:0KiB other streams:0KiB global headers:0KiB muxing overhead: 1.512041%\nframe=  600 fps= 24 q=-1.0 Lsize=     527KiB time=00:00:04.98 bitrate= 866.8kbits/s speed= 0.2x elapsed=0:00:24.94    \n[libx264 @ 0000014ae077ca80] frame I:3     Avg QP:38.26  size: 39750\n[libx264 @ 0000014ae077ca80] frame P:151   Avg QP:35.97  size:  1714\n[libx264 @ 0000014ae077ca80] frame B:446   Avg QP:41.79  size:   343\n[libx264 @ 0000014ae077ca80] consecutive B-frames:  0.8%  0.0%  0.5% 98.7%\n[libx264 @ 0000014ae077ca80] mb I  I16..4: 43.7% 53.7%  2.6%\n[libx264 @ 0000014ae077ca80] mb P  I16..4:  0.1%  0.0%  0.0%  P16..4:  6.2%  0.2%  6.2%  0.0%  0.0%    skip:87.3%\n[libx264 @ 0000014ae077ca80] mb B  I16..4:  0.0%  0.0%  0.0%  B16..8:  5.9%  0.0%  0.0%  direct: 0.0%  skip:94.1%  L0: 4.3% L1:95.7% BI: 0.0%\n[libx264 @ 0000014ae077ca80] 8x8 transform intra:53.1% inter:90.6%\n[libx264 @ 0000014ae077ca80] direct mvs  spatial:97.8% temporal:2.2%\n[libx264 @ 0000014ae077ca80] coded y,uvDC,uvAC intra: 30.5% 65.2% 26.7% inter: 0.1% 0.6% 0.0%\n[libx264 @ 0000014ae077ca80] i16 v,h,dc,p: 32% 19%  7% 42%\n[libx264 @ 0000014ae077ca80] i8 v,h,dc,ddl,ddr,vr,hd,vl,hu:  6%  4%  5% 12% 17% 16% 15% 12% 13%\n[libx264 @ 0000014ae077ca80] i4 v,h,dc,ddl,ddr,vr,hd,vl,hu:  8%  3%  3% 13% 17% 15% 15% 11% 15%\n[libx264 @ 0000014ae077ca80] i8c dc,h,v,p: 43% 14% 18% 24%\n[libx264 @ 0000014ae077ca80] Weighted P-Frames: Y:0.0% UV:0.0%\n[libx264 @ 0000014ae077ca80] ref P L0: 78.7% 13.9%  4.1%  1.7%  1.6%\n[libx264 @ 0000014ae077ca80] ref B L0: 88.6%  7.0%  3.7%  0.7%\n[libx264 @ 0000014ae077ca80] ref B L1: 99.3%  0.7%\n[libx264 @ 0000014ae077ca80] kb/s:849.87\n",
  "seconds": 25.25800061225891,
  "probe_out": {}
}